<svg width="11" height="11" viewBox="0 0 11 11" fill="none" xmlns="http://www.w3.org/2000/svg">
<path d="M10.5882 7.8565C10.5882 8.10194 10.5073 8.30811 10.3454 8.47501C10.1835 8.637 9.98978 8.71799 9.76413 8.71799C9.54339 8.71799 9.35454 8.637 9.19756 8.47501C9.0455 8.30811 8.96946 8.1093 8.96946 7.87859V5.2573L9.01152 4.22487C9.0345 3.66059 8.3377 3.37826 7.96141 3.79939L1.44218 10.3232C1.26558 10.4999 1.06692 10.5882 0.846176 10.5882C0.699015 10.5882 0.561665 10.5465 0.434125 10.4631C0.306585 10.3845 0.20112 10.2814 0.117729 10.1538C0.0392429 10.0262 0 9.88873 0 9.74147C0 9.52549 0.0882966 9.32668 0.26489 9.14505L6.77676 2.62129C7.19918 2.25049 6.92349 1.55457 6.36174 1.57365L5.21686 1.61253H2.70776C2.48212 1.61253 2.2859 1.53645 2.11912 1.38428C1.95234 1.22719 1.86895 1.03821 1.86895 0.817312C1.86895 0.596417 1.94988 0.404974 2.11176 0.242985C2.27364 0.0809948 2.47721 0 2.72248 0H9.71263C9.97752 0 10.1884 0.0809948 10.3454 0.242985C10.5024 0.404974 10.5809 0.613597 10.5809 0.868854L10.5882 7.8565Z" fill="white"/>
</svg>
