<svg width="20" height="20" viewBox="0 0 20 20" fill="none" xmlns="http://www.w3.org/2000/svg">
<path d="M18 7.5219C18 12.6273 10.5864 16.7597 10.2707 16.9304C10.1875 16.9761 10.0945 17 10 17C9.90551 17 9.8125 16.9761 9.72929 16.9304C9.41357 16.7597 2 12.6273 2 7.5219C2.00132 6.32303 2.46833 5.17365 3.29856 4.32593C4.12879 3.4782 5.25445 3.00135 6.42857 3C7.90357 3 9.195 3.64765 10 4.74239C10.805 3.64765 12.0964 3 13.5714 3C14.7456 3.00135 15.8712 3.4782 16.7014 4.32593C17.5317 5.17365 17.9987 6.32303 18 7.5219Z" stroke="#413430" stroke-width="1.25"/>
</svg>
