<svg width="20" height="20" viewBox="0 0 20 20" fill="none" xmlns="http://www.w3.org/2000/svg">
<g clip-path="url(#clip0_1_463)">
<path d="M14.6875 14.375H7.12266C6.82992 14.375 6.54649 14.2722 6.32177 14.0846C6.09705 13.897 5.94529 13.6365 5.89297 13.3484L3.80703 1.875H1.875" stroke="#413430" stroke-width="1.25" stroke-linecap="round" stroke-linejoin="round"/>
<path d="M7.1875 17.5C8.05044 17.5 8.75 16.8004 8.75 15.9375C8.75 15.0746 8.05044 14.375 7.1875 14.375C6.32456 14.375 5.625 15.0746 5.625 15.9375C5.625 16.8004 6.32456 17.5 7.1875 17.5Z" stroke="#413430" stroke-width="1.25" stroke-linecap="round" stroke-linejoin="round"/>
<path d="M14.6875 17.5C15.5504 17.5 16.25 16.8004 16.25 15.9375C16.25 15.0746 15.5504 14.375 14.6875 14.375C13.8246 14.375 13.125 15.0746 13.125 15.9375C13.125 16.8004 13.8246 17.5 14.6875 17.5Z" stroke="#413430" stroke-width="1.25" stroke-linecap="round" stroke-linejoin="round"/>
<path d="M5.51172 11.25H15.3203C15.613 11.25 15.8965 11.1472 16.1212 10.9596C16.3459 10.772 16.4977 10.5115 16.55 10.2234L17.5 5H4.375" stroke="#413430" stroke-width="1.25" stroke-linecap="round" stroke-linejoin="round"/>
</g>
<defs>
<clipPath id="clip0_1_463">
<rect width="20" height="20" fill="white"/>
</clipPath>
</defs>
</svg>
