<svg width="8" height="5" viewBox="0 0 8 5" fill="none" xmlns="http://www.w3.org/2000/svg">
<path d="M7.89344 0.62108L4.25726 4.25726C4.22349 4.29107 4.18339 4.31789 4.13924 4.33619C4.0951 4.35448 4.04778 4.3639 4 4.3639C3.95221 4.3639 3.9049 4.35448 3.86076 4.33619C3.81661 4.31789 3.77651 4.29107 3.74274 4.25726L0.10656 0.62108C0.0383309 0.55285 0 0.460311 0 0.36382C0 0.267329 0.0383309 0.17479 0.10656 0.10656C0.17479 0.0383307 0.267329 0 0.36382 0C0.460311 0 0.55285 0.0383307 0.62108 0.10656L4 3.48593L7.37892 0.10656C7.4127 0.0727764 7.45281 0.0459777 7.49695 0.027694C7.54109 0.00941032 7.5884 0 7.63618 0C7.68396 0 7.73127 0.00941032 7.77541 0.027694C7.81955 0.0459777 7.85966 0.0727764 7.89344 0.10656C7.92722 0.140344 7.95402 0.180451 7.97231 0.224592C7.99059 0.268733 8 0.316043 8 0.36382C8 0.411598 7.99059 0.458907 7.97231 0.503048C7.95402 0.547189 7.92722 0.587296 7.89344 0.62108Z" fill="white"/>
</svg>
